# Blender 4.2.2 LTS
# www.blender.org
mtllib jumping_cube.mtl
o Cube
v -2.865245 0.041674 -7.892205
v -2.808751 0.041741 -7.889307
v -2.838397 0.001673 -7.862556
v -4.293549 0.038313 -6.549395
v -4.290650 0.038383 -6.605889
v -4.263802 -0.001618 -6.576240
v -1.552079 0.001621 -6.437148
v -1.522433 0.041690 -6.463899
v -1.525331 0.041620 -6.407405
v -2.977485 -0.001670 -5.150832
v -2.950737 0.038329 -5.121089
v -3.007231 0.038262 -5.123987
v -2.867654 1.961671 -7.889962
v -2.840906 2.001670 -7.860219
v -2.811160 1.961738 -7.887064
v -4.266312 1.998379 -6.573904
v -4.293059 1.958380 -6.603646
v -4.295957 1.958310 -6.547152
v -1.554588 2.001618 -6.434811
v -1.527740 1.961617 -6.405162
v -1.524842 1.961687 -6.461656
v -3.009640 1.958259 -5.121744
v -2.953146 1.958326 -5.118846
v -2.979994 1.998327 -5.148496
vn -0.3326 -0.3410 -0.8793
vn 0.4216 -0.3401 -0.8406
vn 0.0258 -0.8750 -0.4835
vn -0.8784 -0.3431 0.3326
vn -0.8398 -0.3421 -0.4216
vn -0.4813 -0.8762 -0.0258
vn 0.4835 -0.8750 0.0237
vn 0.8793 -0.3401 -0.3334
vn 0.8406 -0.3410 0.4208
vn -0.0236 -0.8762 0.4814
vn 0.3334 -0.3422 0.8785
vn -0.4208 -0.3431 0.8398
vn -0.3334 0.3422 -0.8785
vn 0.0236 0.8762 -0.4814
vn 0.4208 0.3431 -0.8398
vn -0.4835 0.8750 -0.0237
vn -0.8406 0.3410 -0.4208
vn -0.8793 0.3401 0.3334
vn 0.4813 0.8762 0.0258
vn 0.8398 0.3421 0.4216
vn 0.8784 0.3431 -0.3326
vn -0.4216 0.3401 0.8406
vn 0.3326 0.3410 0.8793
vn -0.0258 0.8750 0.4835
vt 0.130000 0.505000
vt 0.370000 0.505000
vt 0.370000 0.745000
vt 0.130000 0.745000
vt 0.380000 0.005000
vt 0.620000 0.005000
vt 0.620000 0.245000
vt 0.380000 0.245000
vt 0.380000 0.755000
vt 0.620000 0.755000
vt 0.620000 0.995000
vt 0.380000 0.995000
vt 0.630000 0.505000
vt 0.870000 0.505000
vt 0.870000 0.745000
vt 0.630000 0.745000
vt 0.380000 0.505000
vt 0.620000 0.505000
vt 0.620000 0.745000
vt 0.380000 0.745000
vt 0.620000 0.495000
vt 0.625000 0.495000
vt 0.620000 0.500000
vt 0.370000 0.500000
vt 0.375000 0.505000
vt 0.620000 0.750000
vt 0.625000 0.755000
vt 0.375000 0.745000
vt 0.370000 0.750000
vt 0.620000 0.250000
vt 0.625000 0.245000
vt 0.125000 0.505000
vt 0.130000 0.500000
vt 0.620000 0.000000
vt 0.625000 0.005000
vt 0.130000 0.750000
vt 0.125000 0.745000
vt 0.380000 0.495000
vt 0.380000 0.000000
vt 0.620000 0.255000
vt 0.380000 0.255000
vt 0.625000 0.995000
vt 0.625000 0.255000
s 1
usemtl Cube_mat
f 18/1/18 4/2/4 12/3/12 22/4/22
f 24/5/24 19/6/19 14/7/14 16/8/16
f 11/9/11 9/10/9 20/11/20 23/12/23
f 2/13/2 15/14/15 21/15/21 8/16/8
f 6/17/6 3/18/3 7/19/7 10/20/10
f 1/21/1 2/22/2 3/23/3
f 4/2/4 5/24/5 6/25/6
f 7/26/7 8/27/8 9/10/9
f 10/28/10 11/29/11 12/3/12
f 13/30/13 14/7/14 15/31/15
f 16/32/16 17/33/17 18/1/18
f 19/6/19 20/34/20 21/35/21
f 22/4/22 23/36/23 24/37/24
f 18/1/18 22/4/22 24/37/24 16/32/16
f 4/2/4 18/1/18 17/33/17 5/24/5
f 3/18/3 6/17/6 5/38/5 1/21/1
f 23/39/23 20/34/20 19/6/19 24/5/24
f 9/10/9 11/9/11 10/20/10 7/19/7
f 13/40/13 17/41/17 16/8/16 14/7/14
f 8/27/8 21/42/21 20/11/20 9/10/9
f 2/13/2 8/16/8 7/19/7 3/18/3
f 22/4/22 12/3/12 11/29/11 23/36/23
f 21/35/21 15/31/15 14/7/14 19/6/19
f 15/43/15 2/22/2 1/21/1 13/40/13
f 12/3/12 4/2/4 6/17/6 10/20/10
f 17/41/17 13/40/13 1/21/1 5/38/5
o Plane
v -12.188941 0.000000 12.188941
v 12.188941 0.000000 12.188941
v -12.188941 0.000000 -12.188941
v 12.188941 0.000000 -12.188941
vn -0.0000 1.0000 -0.0000
vt 0.000000 0.000000
vt 1.000000 0.000000
vt 1.000000 1.000000
vt 0.000000 1.000000
s 0
usemtl Plane_mat
f 25/44/25 26/45/25 28/46/25 27/47/25
