# Blender 4.2.2 LTS
# www.blender.org
mtllib jumping_cube.mtl
o Cube
v -2.107896 2.353648 -6.007174
v -2.100802 2.329118 -5.956697
v -2.114160 2.297686 -6.001792
v -3.563661 2.361749 -7.320140
v -3.512240 2.384974 -7.316080
v -3.518505 2.329012 -7.310698
v -3.178021 1.151561 -4.887790
v -3.164663 1.182993 -4.842695
v -3.216084 1.159768 -4.846755
v -4.582366 1.182887 -6.196696
v -4.620429 1.191095 -6.155661
v -4.627522 1.215625 -6.206139
v -2.871058 3.893719 -5.151507
v -2.909121 3.901926 -5.110472
v -2.863965 3.869188 -5.101029
v -4.313466 3.933252 -6.419378
v -4.275403 3.925045 -6.460413
v -4.326824 3.901820 -6.464473
v -3.972982 2.755801 -3.996470
v -3.979246 2.699839 -3.991088
v -3.927825 2.723064 -3.987028
v -5.390684 2.755695 -5.350471
v -5.383591 2.731165 -5.299994
v -5.377326 2.787127 -5.305376
vn 0.8708 0.2431 -0.4274
vn 0.9655 -0.0844 0.2465
vn 0.7871 -0.5040 -0.3555
vn -0.3154 -0.0558 -0.9473
vn 0.3711 0.2542 -0.8931
vn 0.2875 -0.4928 -0.8213
vn 0.4086 -0.9118 0.0408
vn 0.5869 -0.4922 0.6429
vn -0.0995 -0.8022 0.5887
vn -0.0911 -0.9007 -0.4249
vn -0.5992 -0.7911 0.1229
vn -0.6939 -0.4636 -0.5509
vn 0.5992 0.7911 -0.1229
vn 0.0911 0.9007 0.4249
vn 0.6939 0.4636 0.5509
vn -0.4086 0.9118 -0.0408
vn 0.0995 0.8022 -0.5887
vn -0.5869 0.4922 -0.6429
vn -0.2875 0.4928 0.8213
vn -0.3711 -0.2542 0.8931
vn 0.3154 0.0558 0.9473
vn -0.9655 0.0844 -0.2465
vn -0.8708 -0.2431 0.4274
vn -0.7871 0.5040 0.3555
vt 0.130000 0.505000
vt 0.370000 0.505000
vt 0.370000 0.745000
vt 0.130000 0.745000
vt 0.380000 0.005000
vt 0.620000 0.005000
vt 0.620000 0.245000
vt 0.380000 0.245000
vt 0.380000 0.755000
vt 0.620000 0.755000
vt 0.620000 0.995000
vt 0.380000 0.995000
vt 0.630000 0.505000
vt 0.870000 0.505000
vt 0.870000 0.745000
vt 0.630000 0.745000
vt 0.380000 0.505000
vt 0.620000 0.505000
vt 0.620000 0.745000
vt 0.380000 0.745000
vt 0.620000 0.495000
vt 0.625000 0.495000
vt 0.620000 0.500000
vt 0.370000 0.500000
vt 0.375000 0.505000
vt 0.620000 0.750000
vt 0.625000 0.755000
vt 0.375000 0.745000
vt 0.370000 0.750000
vt 0.620000 0.250000
vt 0.625000 0.245000
vt 0.125000 0.505000
vt 0.130000 0.500000
vt 0.620000 0.000000
vt 0.625000 0.005000
vt 0.130000 0.750000
vt 0.125000 0.745000
vt 0.380000 0.495000
vt 0.380000 0.000000
vt 0.620000 0.255000
vt 0.380000 0.255000
vt 0.625000 0.995000
vt 0.625000 0.255000
s 1
usemtl Cube_mat
f 18/1/18 4/2/4 12/3/12 22/4/22
f 24/5/24 19/6/19 14/7/14 16/8/16
f 11/9/11 9/10/9 20/11/20 23/12/23
f 2/13/2 15/14/15 21/15/21 8/16/8
f 6/17/6 3/18/3 7/19/7 10/20/10
f 1/21/1 2/22/2 3/23/3
f 4/2/4 5/24/5 6/25/6
f 7/26/7 8/27/8 9/10/9
f 10/28/10 11/29/11 12/3/12
f 13/30/13 14/7/14 15/31/15
f 16/32/16 17/33/17 18/1/18
f 19/6/19 20/34/20 21/35/21
f 22/4/22 23/36/23 24/37/24
f 18/1/18 22/4/22 24/37/24 16/32/16
f 4/2/4 18/1/18 17/33/17 5/24/5
f 3/18/3 6/17/6 5/38/5 1/21/1
f 23/39/23 20/34/20 19/6/19 24/5/24
f 9/10/9 11/9/11 10/20/10 7/19/7
f 13/40/13 17/41/17 16/8/16 14/7/14
f 8/27/8 21/42/21 20/11/20 9/10/9
f 2/13/2 8/16/8 7/19/7 3/18/3
f 22/4/22 12/3/12 11/29/11 23/36/23
f 21/35/21 15/31/15 14/7/14 19/6/19
f 15/43/15 2/22/2 1/21/1 13/40/13
f 12/3/12 4/2/4 6/17/6 10/20/10
f 17/41/17 13/40/13 1/21/1 5/38/5
o Plane
v -12.188941 0.000000 12.188941
v 12.188941 0.000000 12.188941
v -12.188941 0.000000 -12.188941
v 12.188941 0.000000 -12.188941
vn -0.0000 1.0000 -0.0000
vt 0.000000 0.000000
vt 1.000000 0.000000
vt 1.000000 1.000000
vt 0.000000 1.000000
s 0
usemtl Plane_mat
f 25/44/25 26/45/25 28/46/25 27/47/25
