# Blender 4.2.2 LTS
# www.blender.org
mtllib jumping_cube.mtl
o Cube
v -4.228116 2.014505 -3.666275
v -4.200833 1.973539 -3.638392
v -4.200832 1.974096 -3.694958
v -5.614581 2.022553 -5.052222
v -5.585314 2.061558 -5.023551
v -5.558030 2.021150 -5.052235
v -4.248449 0.054780 -3.713882
v -4.248450 0.054223 -3.657316
v -4.277718 0.015217 -3.685987
v -5.605647 0.101834 -5.071158
v -5.634915 0.062271 -5.043263
v -5.662198 0.103237 -5.071146
v -5.585373 2.034789 -2.308393
v -5.614642 1.995226 -2.280498
v -5.558090 1.993823 -2.280511
v -6.971839 2.042279 -3.637775
v -6.942571 2.081843 -3.665670
v -6.971838 2.042837 -3.694341
v -5.662259 0.075910 -2.299422
v -5.634974 0.035501 -2.328106
v -5.605708 0.074507 -2.299435
v -7.019455 0.123521 -3.713265
v -6.992172 0.082555 -3.685382
v -7.019456 0.122963 -3.656699
vn 0.5046 0.8633 0.0085
vn 0.8689 0.3164 0.3807
vn 0.8689 0.3238 -0.3744
vn -0.3690 0.3593 -0.8572
vn 0.0217 0.8800 -0.4744
vn 0.3860 0.3406 -0.8573
vn 0.8519 -0.3591 -0.3811
vn 0.8519 -0.3665 0.3740
vn 0.4612 -0.8872 -0.0087
vn 0.3690 -0.3423 -0.8641
vn -0.0217 -0.8705 -0.4917
vn -0.3859 -0.3236 -0.8639
vn 0.0217 0.8705 0.4917
vn -0.3690 0.3423 0.8641
vn 0.3859 0.3236 0.8639
vn -0.8519 0.3591 0.3811
vn -0.4612 0.8872 0.0087
vn -0.8519 0.3665 -0.3740
vn -0.3860 -0.3406 0.8573
vn -0.0217 -0.8800 0.4744
vn 0.3690 -0.3593 0.8572
vn -0.8689 -0.3164 -0.3807
vn -0.5046 -0.8633 -0.0085
vn -0.8689 -0.3238 0.3744
vt 0.130000 0.505000
vt 0.370000 0.505000
vt 0.370000 0.745000
vt 0.130000 0.745000
vt 0.380000 0.005000
vt 0.620000 0.005000
vt 0.620000 0.245000
vt 0.380000 0.245000
vt 0.380000 0.755000
vt 0.620000 0.755000
vt 0.620000 0.995000
vt 0.380000 0.995000
vt 0.630000 0.505000
vt 0.870000 0.505000
vt 0.870000 0.745000
vt 0.630000 0.745000
vt 0.380000 0.505000
vt 0.620000 0.505000
vt 0.620000 0.745000
vt 0.380000 0.745000
vt 0.620000 0.495000
vt 0.625000 0.495000
vt 0.620000 0.500000
vt 0.370000 0.500000
vt 0.375000 0.505000
vt 0.620000 0.750000
vt 0.625000 0.755000
vt 0.375000 0.745000
vt 0.370000 0.750000
vt 0.620000 0.250000
vt 0.625000 0.245000
vt 0.125000 0.505000
vt 0.130000 0.500000
vt 0.620000 0.000000
vt 0.625000 0.005000
vt 0.130000 0.750000
vt 0.125000 0.745000
vt 0.380000 0.495000
vt 0.380000 0.000000
vt 0.620000 0.255000
vt 0.380000 0.255000
vt 0.625000 0.995000
vt 0.625000 0.255000
s 1
usemtl Cube_mat
f 18/1/18 4/2/4 12/3/12 22/4/22
f 24/5/24 19/6/19 14/7/14 16/8/16
f 11/9/11 9/10/9 20/11/20 23/12/23
f 2/13/2 15/14/15 21/15/21 8/16/8
f 6/17/6 3/18/3 7/19/7 10/20/10
f 1/21/1 2/22/2 3/23/3
f 4/2/4 5/24/5 6/25/6
f 7/26/7 8/27/8 9/10/9
f 10/28/10 11/29/11 12/3/12
f 13/30/13 14/7/14 15/31/15
f 16/32/16 17/33/17 18/1/18
f 19/6/19 20/34/20 21/35/21
f 22/4/22 23/36/23 24/37/24
f 18/1/18 22/4/22 24/37/24 16/32/16
f 4/2/4 18/1/18 17/33/17 5/24/5
f 3/18/3 6/17/6 5/38/5 1/21/1
f 23/39/23 20/34/20 19/6/19 24/5/24
f 9/10/9 11/9/11 10/20/10 7/19/7
f 13/40/13 17/41/17 16/8/16 14/7/14
f 8/27/8 21/42/21 20/11/20 9/10/9
f 2/13/2 8/16/8 7/19/7 3/18/3
f 22/4/22 12/3/12 11/29/11 23/36/23
f 21/35/21 15/31/15 14/7/14 19/6/19
f 15/43/15 2/22/2 1/21/1 13/40/13
f 12/3/12 4/2/4 6/17/6 10/20/10
f 17/41/17 13/40/13 1/21/1 5/38/5
o Plane
v -12.188941 0.000000 12.188941
v 12.188941 0.000000 12.188941
v -12.188941 0.000000 -12.188941
v 12.188941 0.000000 -12.188941
vn -0.0000 1.0000 -0.0000
vt 0.000000 0.000000
vt 1.000000 0.000000
vt 1.000000 1.000000
vt 0.000000 1.000000
s 0
usemtl Plane_mat
f 25/44/25 26/45/25 28/46/25 27/47/25
