# Blender 4.2.2 LTS
# www.blender.org
mtllib jumping_cube.mtl
o Cube
v -2.712374 0.078144 -7.601478
v -2.672374 0.078067 -7.561478
v -2.712451 0.038144 -7.561478
v -4.672370 0.081921 -7.561478
v -4.632370 0.081844 -7.601478
v -4.632448 0.041844 -7.561478
v -2.712451 0.038144 -5.641479
v -2.672374 0.078067 -5.641479
v -2.712374 0.078144 -5.601478
v -4.632447 0.041844 -5.641478
v -4.632370 0.081844 -5.601478
v -4.672370 0.081921 -5.641478
v -2.708674 1.998140 -7.601478
v -2.708597 2.038140 -7.561478
v -2.668674 1.998063 -7.561478
v -4.628593 2.041840 -7.561478
v -4.628670 2.001840 -7.601478
v -4.668670 2.001917 -7.561478
v -2.708597 2.038140 -5.641478
v -2.708674 1.998140 -5.601478
v -2.668674 1.998063 -5.641478
v -4.668670 2.001917 -5.641478
v -4.628670 2.001840 -5.601478
v -4.628593 2.041840 -5.641478
vn 0.3409 -0.3422 -0.8756
vn 0.8749 -0.3433 -0.3416
vn 0.3399 -0.8762 -0.3416
vn -0.8762 -0.3399 -0.3416
vn -0.3422 -0.3409 -0.8756
vn -0.3433 -0.8749 -0.3416
vn 0.3399 -0.8762 0.3416
vn 0.8749 -0.3433 0.3416
vn 0.3409 -0.3422 0.8756
vn -0.3433 -0.8749 0.3416
vn -0.3422 -0.3409 0.8756
vn -0.8762 -0.3399 0.3416
vn 0.3422 0.3409 -0.8756
vn 0.3433 0.8749 -0.3416
vn 0.8762 0.3399 -0.3416
vn -0.3399 0.8762 -0.3416
vn -0.3409 0.3422 -0.8756
vn -0.8749 0.3433 -0.3416
vn 0.3433 0.8749 0.3416
vn 0.3422 0.3409 0.8756
vn 0.8762 0.3399 0.3416
vn -0.8749 0.3433 0.3416
vn -0.3409 0.3422 0.8756
vn -0.3399 0.8762 0.3416
vt 0.130000 0.505000
vt 0.370000 0.505000
vt 0.370000 0.745000
vt 0.130000 0.745000
vt 0.380000 0.005000
vt 0.620000 0.005000
vt 0.620000 0.245000
vt 0.380000 0.245000
vt 0.380000 0.755000
vt 0.620000 0.755000
vt 0.620000 0.995000
vt 0.380000 0.995000
vt 0.630000 0.505000
vt 0.870000 0.505000
vt 0.870000 0.745000
vt 0.630000 0.745000
vt 0.380000 0.505000
vt 0.620000 0.505000
vt 0.620000 0.745000
vt 0.380000 0.745000
vt 0.620000 0.495000
vt 0.625000 0.495000
vt 0.620000 0.500000
vt 0.370000 0.500000
vt 0.375000 0.505000
vt 0.620000 0.750000
vt 0.625000 0.755000
vt 0.375000 0.745000
vt 0.370000 0.750000
vt 0.620000 0.250000
vt 0.625000 0.245000
vt 0.125000 0.505000
vt 0.130000 0.500000
vt 0.620000 0.000000
vt 0.625000 0.005000
vt 0.130000 0.750000
vt 0.125000 0.745000
vt 0.380000 0.495000
vt 0.380000 0.000000
vt 0.620000 0.255000
vt 0.380000 0.255000
vt 0.625000 0.995000
vt 0.625000 0.255000
s 1
usemtl Cube_mat
f 18/1/18 4/2/4 12/3/12 22/4/22
f 24/5/24 19/6/19 14/7/14 16/8/16
f 11/9/11 9/10/9 20/11/20 23/12/23
f 2/13/2 15/14/15 21/15/21 8/16/8
f 6/17/6 3/18/3 7/19/7 10/20/10
f 1/21/1 2/22/2 3/23/3
f 4/2/4 5/24/5 6/25/6
f 7/26/7 8/27/8 9/10/9
f 10/28/10 11/29/11 12/3/12
f 13/30/13 14/7/14 15/31/15
f 16/32/16 17/33/17 18/1/18
f 19/6/19 20/34/20 21/35/21
f 22/4/22 23/36/23 24/37/24
f 18/1/18 22/4/22 24/37/24 16/32/16
f 4/2/4 18/1/18 17/33/17 5/24/5
f 3/18/3 6/17/6 5/38/5 1/21/1
f 23/39/23 20/34/20 19/6/19 24/5/24
f 9/10/9 11/9/11 10/20/10 7/19/7
f 13/40/13 17/41/17 16/8/16 14/7/14
f 8/27/8 21/42/21 20/11/20 9/10/9
f 2/13/2 8/16/8 7/19/7 3/18/3
f 22/4/22 12/3/12 11/29/11 23/36/23
f 21/35/21 15/31/15 14/7/14 19/6/19
f 15/43/15 2/22/2 1/21/1 13/40/13
f 12/3/12 4/2/4 6/17/6 10/20/10
f 17/41/17 13/40/13 1/21/1 5/38/5
o Plane
v -12.188941 0.000000 12.188941
v 12.188941 0.000000 12.188941
v -12.188941 0.000000 -12.188941
v 12.188941 0.000000 -12.188941
vn -0.0000 1.0000 -0.0000
vt 0.000000 0.000000
vt 1.000000 0.000000
vt 1.000000 1.000000
vt 0.000000 1.000000
s 0
usemtl Plane_mat
f 25/44/25 26/45/25 28/46/25 27/47/25
