# Blender 4.2.2 LTS
# www.blender.org
mtllib jumping_cube.mtl
o Cube
v -2.712371 0.145320 -7.510751
v -2.659322 0.145527 -7.491110
v -2.695475 0.105314 -7.474501
v -4.476543 0.134821 -6.655890
v -4.456903 0.135042 -6.708939
v -4.440007 0.095036 -6.672689
v -1.893650 0.104993 -5.729945
v -1.857497 0.145207 -5.746553
v -1.877137 0.144986 -5.693504
v -3.638182 0.094715 -4.928133
v -3.621669 0.134708 -4.891693
v -3.674718 0.134500 -4.911333
v -2.721576 2.065292 -7.506167
v -2.705063 2.105285 -7.469727
v -2.668527 2.065500 -7.486526
v -4.449595 2.095007 -6.667915
v -4.466108 2.055014 -6.704355
v -4.485748 2.054793 -6.651306
v -1.903239 2.104964 -5.725170
v -1.886342 2.064958 -5.688920
v -1.866702 2.065179 -5.741970
v -3.683923 2.054473 -4.906750
v -3.630874 2.054680 -4.887109
v -3.647771 2.094686 -4.923358
vn -0.0537 -0.3396 -0.9390
vn 0.6545 -0.3368 -0.6768
vn 0.1719 -0.8737 -0.4551
vn -0.9366 -0.3462 0.0545
vn -0.6744 -0.3433 -0.6537
vn -0.4488 -0.8773 -0.1698
vn 0.4572 -0.8738 0.1656
vn 0.9398 -0.3370 -0.0561
vn 0.6777 -0.3399 0.6521
vn -0.1635 -0.8775 0.4509
vn 0.0569 -0.3436 0.9374
vn -0.6513 -0.3463 0.6752
vn -0.0569 0.3436 -0.9374
vn 0.1635 0.8775 -0.4509
vn 0.6513 0.3463 -0.6752
vn -0.4572 0.8738 -0.1656
vn -0.6777 0.3399 -0.6521
vn -0.9399 0.3370 0.0561
vn 0.4488 0.8773 0.1698
vn 0.6744 0.3433 0.6537
vn 0.9366 0.3462 -0.0545
vn -0.6545 0.3368 0.6768
vn 0.0537 0.3396 0.9390
vn -0.1719 0.8737 0.4551
vt 0.130000 0.505000
vt 0.370000 0.505000
vt 0.370000 0.745000
vt 0.130000 0.745000
vt 0.380000 0.005000
vt 0.620000 0.005000
vt 0.620000 0.245000
vt 0.380000 0.245000
vt 0.380000 0.755000
vt 0.620000 0.755000
vt 0.620000 0.995000
vt 0.380000 0.995000
vt 0.630000 0.505000
vt 0.870000 0.505000
vt 0.870000 0.745000
vt 0.630000 0.745000
vt 0.380000 0.505000
vt 0.620000 0.505000
vt 0.620000 0.745000
vt 0.380000 0.745000
vt 0.620000 0.495000
vt 0.625000 0.495000
vt 0.620000 0.500000
vt 0.370000 0.500000
vt 0.375000 0.505000
vt 0.620000 0.750000
vt 0.625000 0.755000
vt 0.375000 0.745000
vt 0.370000 0.750000
vt 0.620000 0.250000
vt 0.625000 0.245000
vt 0.125000 0.505000
vt 0.130000 0.500000
vt 0.620000 0.000000
vt 0.625000 0.005000
vt 0.130000 0.750000
vt 0.125000 0.745000
vt 0.380000 0.495000
vt 0.380000 0.000000
vt 0.620000 0.255000
vt 0.380000 0.255000
vt 0.625000 0.995000
vt 0.625000 0.255000
s 1
usemtl Cube_mat
f 18/1/18 4/2/4 12/3/12 22/4/22
f 24/5/24 19/6/19 14/7/14 16/8/16
f 11/9/11 9/10/9 20/11/20 23/12/23
f 2/13/2 15/14/15 21/15/21 8/16/8
f 6/17/6 3/18/3 7/19/7 10/20/10
f 1/21/1 2/22/2 3/23/3
f 4/2/4 5/24/5 6/25/6
f 7/26/7 8/27/8 9/10/9
f 10/28/10 11/29/11 12/3/12
f 13/30/13 14/7/14 15/31/15
f 16/32/16 17/33/17 18/1/18
f 19/6/19 20/34/20 21/35/21
f 22/4/22 23/36/23 24/37/24
f 18/1/18 22/4/22 24/37/24 16/32/16
f 4/2/4 18/1/18 17/33/17 5/24/5
f 3/18/3 6/17/6 5/38/5 1/21/1
f 23/39/23 20/34/20 19/6/19 24/5/24
f 9/10/9 11/9/11 10/20/10 7/19/7
f 13/40/13 17/41/17 16/8/16 14/7/14
f 8/27/8 21/42/21 20/11/20 9/10/9
f 2/13/2 8/16/8 7/19/7 3/18/3
f 22/4/22 12/3/12 11/29/11 23/36/23
f 21/35/21 15/31/15 14/7/14 19/6/19
f 15/43/15 2/22/2 1/21/1 13/40/13
f 12/3/12 4/2/4 6/17/6 10/20/10
f 17/41/17 13/40/13 1/21/1 5/38/5
o Plane
v -12.188941 0.000000 12.188941
v 12.188941 0.000000 12.188941
v -12.188941 0.000000 -12.188941
v 12.188941 0.000000 -12.188941
vn -0.0000 1.0000 -0.0000
vt 0.000000 0.000000
vt 1.000000 0.000000
vt 1.000000 1.000000
vt 0.000000 1.000000
s 0
usemtl Plane_mat
f 25/44/25 26/45/25 28/46/25 27/47/25
